<?xml version="1.0" standalone="no"?>
<!DOCTYPE svg PUBLIC "-//W3C//DTD SVG 20010904//EN"
 "http://www.w3.org/TR/2001/REC-SVG-20010904/DTD/svg10.dtd">
<svg version="1.0" xmlns="http://www.w3.org/2000/svg"
 width="512.000000pt" height="512.000000pt" viewBox="0 0 512.000000 512.000000"
 preserveAspectRatio="xMidYMid meet">
<metadata>
Created by potrace 1.11, written by Peter Selinger 2001-2013
</metadata>
<g transform="translate(0.000000,512.000000) scale(0.100000,-0.100000)"
fill="#000000" stroke="none">
<path d="M1577 3884 c-1 -1 -36 -5 -77 -8 -340 -32 -639 -188 -846 -443 -92
-113 -188 -326 -219 -484 -21 -104 -27 -347 -12 -463 23 -178 103 -378 213
-533 164 -230 455 -412 734 -458 25 -4 54 -10 65 -12 11 -3 85 -7 165 -9 370
-10 638 87 884 321 49 47 52 54 24 78 -24 21 -320 301 -342 323 -8 9 -29 -6
-81 -55 -137 -130 -315 -183 -520 -156 -313 43 -531 301 -550 649 -18 332 158
617 441 713 217 75 479 26 626 -117 l58 -56 186 187 185 186 -43 44 c-173 176
-477 287 -806 293 -45 1 -84 1 -85 0z"/>
<path d="M2852 3815 c-3 -5 -6 -521 -6 -1147 l-1 -1138 273 0 272 0 0 455 0
456 96 -3 95 -3 150 -275 c174 -317 193 -354 280 -512 l63 -118 324 0 c178 0
321 3 319 8 -2 4 -60 99 -129 212 -69 113 -194 318 -277 455 -84 138 -161 262
-172 278 -19 26 -19 28 -2 34 150 54 240 112 321 207 48 57 103 165 122 241
18 73 20 248 3 330 -51 254 -266 443 -568 501 -22 4 -47 9 -55 10 -94 19
-1097 27 -1108 9z m963 -448 c119 -29 177 -67 212 -137 18 -35 23 -61 22 -115
-1 -38 -6 -76 -12 -82 -5 -7 -6 -13 -2 -13 10 0 -42 -70 -69 -93 -72 -61 -152
-78 -383 -82 l-193 -3 0 41 c-1 43 -1 378 0 453 l0 41 203 -2 c111 -2 211 -5
222 -8z"/>
</g>
</svg>
